/vscmnt/brussel_pixiu_data/_data_brussel/112/vsc11236/PredSimResults/SUBJ04_Dhondt2024_3seg/weighted/worker_05.mot
version=1
nRows=4
nColumns=124
inDegrees=yes
endheader
                time	         pelvis_tilt	         pelvis_list	     pelvis_rotation	           pelvis_tx	           pelvis_ty	           pelvis_tz	       hip_flexion_r	     hip_adduction_r	      hip_rotation_r	        knee_angle_r	       ankle_angle_r	    subtalar_angle_r	         mtp_angle_r	       hip_flexion_l	     hip_adduction_l	      hip_rotation_l	        knee_angle_l	       ankle_angle_l	    subtalar_angle_l	         mtp_angle_l	    lumbar_extension	      lumbar_bending	     lumbar_rotation	          arm_flex_r	           arm_add_r	           arm_rot_r	        elbow_flex_r	          arm_flex_l	           arm_add_l	           arm_rot_l	        elbow_flex_l	glut_med1_r/activation	glut_med2_r/activation	glut_med3_r/activation	glut_min1_r/activation	glut_min2_r/activation	glut_min3_r/activation	semimem_r/activation	semiten_r/activation	bifemlh_r/activation	bifemsh_r/activation	    sar_r/activation	add_long_r/activation	add_brev_r/activation	add_mag1_r/activation	add_mag2_r/activation	add_mag3_r/activation	    tfl_r/activation	   pect_r/activation	   grac_r/activation	glut_max1_r/activation	glut_max2_r/activation	glut_max3_r/activation	iliacus_r/activation	  psoas_r/activation	quad_fem_r/activation	    gem_r/activation	   peri_r/activation	rect_fem_r/activation	vas_med_r/activation	vas_int_r/activation	vas_lat_r/activation	med_gas_r/activation	lat_gas_r/activation	 soleus_r/activation	tib_post_r/activation	flex_dig_r/activation	flex_hal_r/activation	tib_ant_r/activation	per_brev_r/activation	per_long_r/activation	per_tert_r/activation	ext_dig_r/activation	ext_hal_r/activation	glut_med1_l/activation	glut_med2_l/activation	glut_med3_l/activation	glut_min1_l/activation	glut_min2_l/activation	glut_min3_l/activation	semimem_l/activation	semiten_l/activation	bifemlh_l/activation	bifemsh_l/activation	    sar_l/activation	add_long_l/activation	add_brev_l/activation	add_mag1_l/activation	add_mag2_l/activation	add_mag3_l/activation	    tfl_l/activation	   pect_l/activation	   grac_l/activation	glut_max1_l/activation	glut_max2_l/activation	glut_max3_l/activation	iliacus_l/activation	  psoas_l/activation	quad_fem_l/activation	    gem_l/activation	   peri_l/activation	rect_fem_l/activation	vas_med_l/activation	vas_int_l/activation	vas_lat_l/activation	med_gas_l/activation	lat_gas_l/activation	 soleus_l/activation	tib_post_l/activation	flex_dig_l/activation	flex_hal_l/activation	tib_ant_l/activation	per_brev_l/activation	per_long_l/activation	per_tert_l/activation	ext_dig_l/activation	ext_hal_l/activation	 ercspn_r/activation	 ercspn_l/activation	 intobl_r/activation	 intobl_l/activation	 extobl_r/activation	 extobl_l/activation	
          1.33618863	         -2.92646210	         -0.44689502	          1.17783175	          1.14912222	          0.87369365	         -0.00220578	         25.53875969	          3.55466348	          7.37550108	         -5.70240665	          2.61645204	         -5.67382321	          0.20366350	        -13.23745116	          3.81373001	         13.43688889	         -6.15174835	          9.16715319	         -2.94100863	         12.96648727	         -3.97304637	         -0.74661351	         -1.39912838	         -2.15937002	        -13.45794056	         16.51539152	         21.55853529	          2.53800064	        -13.54142507	         19.38667691	         38.74405267	          0.03438682	          0.01224619	          0.01000014	          0.01494998	          0.01494963	          0.01000069	          0.01222728	          0.05327838	          0.05439335	          0.01000010	          0.01000012	          0.14705101	          0.20233310	          0.14026777	          0.16156887	          0.09467080	          0.01000025	          0.02023134	          0.03603462	          0.01218028	          0.01494980	          0.04594913	          0.01813406	          0.01607237	          0.01288770	          0.01000037	          0.01000010	          0.01000017	          0.09829226	          0.10129525	          0.08286809	          0.01000002	          0.01000004	          0.01000004	          0.01000746	          0.01000087	          0.01000122	          0.21145886	          0.17292790	          0.11482149	          0.14966619	          0.33249962	          0.04340111	          0.41619666	          0.20704849	          0.11064354	          0.36832645	          0.37823403	          0.24939488	          0.01004625	          0.01000079	          0.01000080	          0.05217578	          0.13115645	          0.01000005	          0.01000007	          0.01000025	          0.01000090	          0.01000042	          0.37555990	          0.01000030	          0.01000041	          0.03387933	          0.02728709	          0.01000118	          0.25187686	          0.35736475	          0.01000389	          0.02245525	          0.12040883	          0.12956492	          0.01000017	          0.01000021	          0.01000018	          0.42206902	          0.46133208	          0.40301971	          0.22672314	          0.25249197	          0.31706111	          0.01277496	          0.13314695	          0.21136090	          0.01534273	          0.01529656	          0.01429748	          0.01723496	          0.01000000	          0.04995192	          0.01000000	          0.08462022	          0.01000002	
          1.34955052	         -2.93019995	         -0.67524774	          1.30354176	          1.16329568	          0.87317349	         -0.00198280	         24.57763866	          3.97084850	          7.58330090	         -4.70682044	          1.55333682	         -6.10299088	          0.21865678	        -13.47814014	          3.63965517	         13.06298537	         -7.44089458	          8.87135435	         -2.60001269	         14.09442843	         -3.82770329	         -0.27645554	         -1.48291245	         -2.90506874	        -13.46851198	         16.15407151	         20.11837073	          2.05764336	        -13.56894771	         19.38553708	         41.07600657	          0.02812372	          0.01001592	          0.01000010	          0.01222709	          0.01222692	          0.01000043	          0.01000026	          0.04357447	          0.04448635	          0.01000001	          0.01000008	          0.12115806	          0.20012488	          0.18625824	          0.15077239	          0.07742793	          0.01000012	          0.03686462	          0.02947152	          0.01000083	          0.01222700	          0.06389077	          0.01483119	          0.01314501	          0.08203662	          0.01000028	          0.01000029	          0.01800404	          0.08922289	          0.08468485	          0.07323554	          0.01000000	          0.01000000	          0.00999999	          0.01000000	          0.01000006	          0.01000005	          0.21262147	          0.14401130	          0.09991036	          0.18084675	          0.35717447	          0.05291527	          0.44409521	          0.16933740	          0.09049131	          0.31227839	          0.30934409	          0.20397098	          0.01000042	          0.01000011	          0.01000009	          0.04267267	          0.10726861	          0.01000014	          0.01000011	          0.01000031	          0.01000094	          0.01000025	          0.32160531	          0.01000089	          0.01000147	          0.02770881	          0.02231729	          0.01000081	          0.23276819	          0.29246857	          0.01827882	          0.01836563	          0.09847798	          0.13140012	          0.01000021	          0.01000026	          0.01000021	          0.39101277	          0.42957579	          0.38925861	          0.22514336	          0.25987568	          0.32074426	          0.01044818	          0.10889604	          0.19381098	          0.01254827	          0.01251050	          0.01169340	          0.01409584	          0.01000003	          0.04085385	          0.01015410	          0.06920778	          0.01000002	
          1.36291240	         -2.92885407	         -0.91493367	          1.42194384	          1.17785026	          0.87274477	         -0.00176138	         23.59838419	          4.36889999	          7.81749336	         -4.31121709	          0.14135297	         -6.51939406	          0.22919622	        -13.66419411	          3.44913412	         12.66911057	         -8.85219298	          8.42083087	         -2.20491346	         15.31234921	         -3.66062256	          0.21419707	         -1.55934828	         -3.67959740	        -13.48825578	         15.96558527	         18.67809078	          1.48846973	        -13.59223841	         19.36429892	         43.41656197	          0.02300137	          0.01000001	          0.01000004	          0.01000011	          0.01000004	          0.01000003	          0.01000024	          0.03691243	          0.03638378	          0.02235200	          0.01000710	          0.09944382	          0.18936021	          0.15233510	          0.12331141	          0.06332549	          0.01000009	          0.03335286	          0.11924059	          0.01000004	          0.01000008	          0.05225394	          0.01827917	          0.01827921	          0.14557791	          0.01847705	          0.01000010	          0.01472486	          0.07297215	          0.06926066	          0.05989669	          0.01495144	          0.01786733	          0.01222731	          0.01494991	          0.01222852	          0.01494944	          0.17389534	          0.12041194	          0.11136037	          0.14790796	          0.38788230	          0.04327751	          0.39067831	          0.13849487	          0.07400953	          0.31570545	          0.25300127	          0.16682042	          0.01000180	          0.01000017	          0.01000013	          0.03490043	          0.08773116	          0.01000008	          0.01000008	          0.01000024	          0.01000078	          0.01000030	          0.26302934	          0.01000051	          0.01000037	          0.02266210	          0.01825261	          0.01000041	          0.19481754	          0.24560156	          0.01494963	          0.01502069	          0.08054155	          0.15146604	          0.01000015	          0.01000020	          0.01000017	          0.35558956	          0.39074396	          0.36896939	          0.21469265	          0.25384445	          0.31063662	          0.01000000	          0.08906211	          0.19342581	          0.01026278	          0.01023189	          0.01000005	          0.01152848	          0.01000007	          0.03341287	          0.01222710	          0.05660251	          0.01222702	
          1.37627429	         -2.92372743	         -1.17348857	          1.52817066	          1.19269234	          0.87243385	         -0.00155978	         22.57222433	          4.71798295	          8.08740348	         -4.02044026	         -1.50796579	         -6.93028207	          0.22776593	        -13.77894610	          3.23551591	         12.25106609	        -10.39469380	          7.79915199	         -1.75260450	         16.60541398	         -3.47819281	          0.73388755	         -1.62496709	         -4.45762951	        -13.51827215	         15.98584848	         17.21749751	          0.84412489	        -13.60471193	         19.32121571	         45.75488108	          0.18315529	          0.16658655	          0.15516449	          0.01584037	          0.01000042	          0.13911906	          0.03177506	          0.04357791	          0.02975716	          0.01828092	          0.01000136	          0.08133147	          0.15487080	          0.12458934	          0.10085194	          0.05179165	          0.01000030	          0.02727817	          0.09752255	          0.01000014	          0.01000008	          0.04273662	          0.01494988	          0.01494991	          0.11906287	          0.01511183	          0.07833006	          0.01204294	          0.05968129	          0.05664580	          0.04898734	          0.01222824	          0.01461304	          0.01000028	          0.01222699	          0.01000128	          0.01222663	          0.30514184	          0.19721572	          0.10764681	          0.37981567	          0.47043171	          0.14517317	          0.39263497	          0.11326988	          0.06052969	          0.36249003	          0.20692052	          0.13643632	          0.01000077	          0.01000011	          0.01000011	          0.02854379	          0.07175215	          0.01000007	          0.01000007	          0.01000022	          0.01000073	          0.01000027	          0.21512212	          0.01000038	          0.01000032	          0.01853456	          0.01492825	          0.01000067	          0.18293709	          0.24469109	          0.01222682	          0.01228496	          0.06587198	          0.12387855	          0.01000121	          0.01000101	          0.01000058	          0.31445737	          0.35060076	          0.34264059	          0.19680753	          0.22910637	          0.29045748	          0.01000000	          0.07284072	          0.20768159	          0.01000003	          0.01000001	          0.01000007	          0.01270352	          0.01950367	          0.02732717	          0.01000010	          0.04629312	          0.01000006	
